<svg width="3041" height="850" viewBox="0 0 3041 850" fill="none" xmlns="http://www.w3.org/2000/svg">
<rect width="127.45" height="652.888" transform="matrix(0 1 -1 0 1082.27 0)" fill="white"/>
<rect width="143.099" height="331.37" transform="translate(1143.54 127.457)" fill="white"/>
<rect width="143.099" height="475.814" transform="translate(2334.45 127.457)" fill="white"/>
<rect width="143.099" height="186.927" transform="translate(2334.45 662.762)" fill="white"/>
<rect width="143.099" height="144.443" transform="translate(2897.8 705.189)" fill="white"/>
<rect width="35.7747" height="509.8" transform="translate(2897.8 195.414)" fill="white"/>
<rect width="35.7747" height="178.43" transform="translate(3005.16 543.758)" fill="white"/>
<rect width="62.6057" height="280.39" transform="translate(2978.36 424.861)" fill="white"/>
<rect width="44.7184" height="407.84" transform="translate(2933.66 297.348)" fill="white"/>
<rect width="123.588" height="402.465" transform="matrix(0 1 -1 0 1684.61 332.189)" fill="white"/>
<rect width="127.45" height="411.409" transform="matrix(0 1 -1 0 1690.42 331.322)" fill="white"/>
<rect width="152.042" height="332.143" transform="matrix(-1 0 0 -1 1291.09 849.666)" fill="white"/>
<rect width="84.9667" height="581.339" transform="matrix(0 -1 -1 0 1869.3 807.23)" fill="white"/>
<rect width="42.4834" height="482.958" transform="matrix(0 1 -1 0 1770.98 807.23)" fill="white"/>
<rect width="118.953" height="223.592" transform="matrix(0 1 -1 0 727.621 382.377)" fill="white"/>
<rect width="50.98" height="295.141" transform="matrix(0 1 -1 0 733.438 722.209)" fill="white"/>
<rect width="33.9867" height="474.015" transform="matrix(0 1 -1 0 733.438 815.684)" fill="white"/>
<rect width="42.4834" height="348.803" transform="matrix(0 1 -1 0 733.438 773.146)" fill="white"/>
<rect width="127.45" height="536.621" transform="matrix(0 1 -1 0 2799.46 0)" fill="white"/>
<rect width="76.47" height="169.93" transform="matrix(0 1 -1 0 2283.93 0)" fill="white"/>
<rect width="50.98" height="98.3804" transform="matrix(0 1 -1 0 2262.81 76.4688)" fill="white"/>
<path d="M436.947 0C398.776 -3.93125e-07 360.978 6.49329 325.712 19.1091C290.447 31.725 258.404 50.2163 231.412 73.5273C204.421 96.8384 183.011 124.513 168.403 154.97C153.796 185.427 146.277 218.071 146.277 251.038C146.277 284.005 153.796 316.649 168.403 347.106C183.011 377.563 204.421 405.238 231.412 428.549C258.404 451.86 290.447 470.351 325.712 482.967C360.978 495.583 394.304 501.304 432.475 501.304V382.35C413.156 382.35 398.498 374.805 380.65 368.42C362.801 362.035 346.584 352.676 332.923 340.878C319.263 329.08 308.427 315.074 301.034 299.659C293.641 284.244 289.835 267.723 289.835 251.038C289.835 234.353 293.641 217.832 301.034 202.417C308.427 187.002 319.263 172.996 332.923 161.198C346.584 149.4 362.801 140.041 380.65 133.656C398.498 127.271 417.628 127.45 436.947 127.45V0Z" fill="white"/>
<path d="M727.69 849.666C763.512 849.666 794.512 843.572 827.607 831.733C860.703 819.893 890.774 802.54 916.104 780.663C941.434 758.787 961.527 732.816 975.236 704.233C988.944 675.65 996 645.015 996 614.076C996 583.138 988.944 552.503 975.236 523.92C961.527 495.337 941.434 469.366 916.104 447.49C890.774 425.613 860.703 408.26 827.607 396.42C794.512 384.581 763.512 382.349 727.69 382.349V501.302C744.883 501.302 757.435 503.93 773.319 509.613C789.203 515.295 803.636 523.624 815.793 534.123C827.95 544.623 837.594 557.088 844.173 570.806C850.753 584.525 854.139 599.228 854.139 614.076C854.139 628.925 850.753 643.628 844.173 657.347C837.594 671.065 827.95 683.53 815.793 694.03C803.636 704.529 789.203 712.858 773.319 718.54C757.435 724.223 744.883 722.216 727.69 722.216V849.666Z" fill="white"/>
<rect width="127.45" height="760.212" transform="matrix(0 1 -1 0 1903.77 0)" fill="white"/>
<rect width="76.47" height="187.817" transform="matrix(0 1 -1 0 2164.39 0)" fill="url(#paint0_linear_733_127)"/>
<rect width="50.98" height="232.536" transform="matrix(0 1 -1 0 2289.64 76.4688)" fill="url(#paint1_linear_733_127)"/>
<rect width="42.4834" height="313.029" transform="matrix(0 1 -1 0 1940.82 807.23)" fill="url(#paint2_linear_733_127)"/>
<rect width="84.9667" height="169.93" transform="matrix(0 -1 -1 0 1994.45 807.23)" fill="url(#paint3_linear_733_127)"/>
<rect width="50.98" height="536.621" transform="matrix(0 1 -1 0 617.125 722.209)" fill="url(#paint4_linear_733_127)"/>
<rect width="42.4834" height="313.029" transform="matrix(0 1 -1 0 438.352 773.146)" fill="url(#paint5_linear_733_127)"/>
<rect width="34.0426" height="382.793" transform="matrix(-0.00275486 0.999996 -0.999997 -0.00248637 382.887 815.957)" fill="url(#paint6_linear_733_127)"/>
<rect width="62.6057" height="424.834" transform="translate(2978.36)" fill="url(#paint7_linear_733_127)"/>
<rect width="44.7184" height="297.384" transform="translate(2933.66)" fill="url(#paint8_linear_733_127)"/>
<rect width="35.7747" height="195.423" transform="translate(2897.8)" fill="url(#paint9_linear_733_127)"/>
<defs>
<linearGradient id="paint0_linear_733_127" x1="38.2342" y1="187.817" x2="38.2342" y2="0.170208" gradientUnits="userSpaceOnUse">
<stop stop-color="#C990FF"/>
<stop offset="1" stop-color="white"/>
</linearGradient>
<linearGradient id="paint1_linear_733_127" x1="25.49" y1="232.536" x2="25.49" y2="5.54408e-05" gradientUnits="userSpaceOnUse">
<stop stop-color="#C990FF"/>
<stop offset="1" stop-color="white"/>
</linearGradient>
<linearGradient id="paint2_linear_733_127" x1="21.2417" y1="9.81998e-06" x2="21.2417" y2="313.029" gradientUnits="userSpaceOnUse">
<stop stop-color="#9864FF"/>
<stop offset="1" stop-color="white"/>
</linearGradient>
<linearGradient id="paint3_linear_733_127" x1="42.4834" y1="1.44694e-05" x2="42.4834" y2="169.93" gradientUnits="userSpaceOnUse">
<stop stop-color="#9864FF"/>
<stop offset="1" stop-color="white"/>
</linearGradient>
<linearGradient id="paint4_linear_733_127" x1="25.49" y1="536.616" x2="25.49" y2="0" gradientUnits="userSpaceOnUse">
<stop stop-color="#C990FF"/>
<stop offset="1" stop-color="white"/>
</linearGradient>
<linearGradient id="paint5_linear_733_127" x1="21.2417" y1="313.026" x2="21.2417" y2="0" gradientUnits="userSpaceOnUse">
<stop stop-color="#C990FF"/>
<stop offset="1" stop-color="white"/>
</linearGradient>
<linearGradient id="paint6_linear_733_127" x1="0" y1="191.395" x2="34.0426" y2="191.395" gradientUnits="userSpaceOnUse">
<stop stop-color="#C990FF"/>
<stop offset="1" stop-color="white"/>
</linearGradient>
<linearGradient id="paint7_linear_733_127" x1="31.3029" y1="0" x2="31.3029" y2="424.834" gradientUnits="userSpaceOnUse">
<stop stop-color="#9864FF"/>
<stop offset="1" stop-color="white"/>
</linearGradient>
<linearGradient id="paint8_linear_733_127" x1="22.3592" y1="0" x2="22.3592" y2="297.384" gradientUnits="userSpaceOnUse">
<stop stop-color="#9864FF"/>
<stop offset="1" stop-color="white"/>
</linearGradient>
<linearGradient id="paint9_linear_733_127" x1="17.8874" y1="0" x2="17.8874" y2="195.423" gradientUnits="userSpaceOnUse">
<stop stop-color="#9864FF"/>
<stop offset="1" stop-color="white"/>
</linearGradient>
</defs>
</svg>
